<svg xmlns="http://www.w3.org/2000/svg" viewBox="0 0 20 20"
     aria-hidden="true" class="w-5 h-5">
    <symbol id="remove-icon">
        <path
                d="M6.28 5.22a.75.75 0 00-1.06 1.06L8.94 10l-3.72 3.72a.75.75 0 101.06 1.06L10 11.06l3.72 3.72a.75.75 0 101.06-1.06L11.06 10l3.72-3.72a.75.75 0 00-1.06-1.06L10 8.94 6.28 5.22z" />
    </symbol>

    <symbol id="in-stock">
        <path fill-rule="evenodd"
              d="M16.704 4.153a.75.75 0 01.143 1.052l-8 10.5a.75.75 0 01-1.127.075l-4.5-4.5a.75.75 0 011.06-1.06l3.894 3.893 7.48-9.817a.75.75 0 011.05-.143z"
              clip-rule="evenodd" />
    </symbol>

    <symbol id="apple-pay">
        <path d="M9.536 2.579c-.571.675-1.485 1.208-2.4 1.132-.113-.914.334-1.884.858-2.484C8.565.533 9.564.038 10.374 0c.095.951-.276 1.884-.838 2.579zm.829 1.313c-1.324-.077-2.457.751-3.085.751-.638 0-1.6-.713-2.647-.694-1.362.019-2.628.79-3.323 2.017-1.429 2.455-.372 6.09 1.009 8.087.676.99 1.485 2.075 2.552 2.036 1.009-.038 1.409-.656 2.628-.656 1.228 0 1.58.656 2.647.637 1.104-.019 1.8-.99 2.475-1.979.771-1.122 1.086-2.217 1.105-2.274-.02-.019-2.133-.828-2.152-3.263-.02-2.036 1.666-3.007 1.742-3.064-.952-1.408-2.437-1.56-2.951-1.598zm7.645-2.76v14.834h2.305v-5.072h3.19c2.913 0 4.96-1.998 4.96-4.89 0-2.893-2.01-4.872-4.885-4.872h-5.57zm2.305 1.941h2.656c2 0 3.142 1.066 3.142 2.94 0 1.875-1.142 2.95-3.151 2.95h-2.647v-5.89zM32.673 16.08c1.448 0 2.79-.733 3.4-1.893h.047v1.779h2.133V8.582c0-2.14-1.714-3.52-4.351-3.52-2.447 0-4.256 1.399-4.323 3.32h2.076c.171-.913 1.018-1.512 2.18-1.512 1.41 0 2.2.656 2.2 1.865v.818l-2.876.171c-2.675.162-4.123 1.256-4.123 3.159 0 1.922 1.495 3.197 3.637 3.197zm.62-1.76c-1.229 0-2.01-.59-2.01-1.494 0-.933.752-1.475 2.19-1.56l2.562-.162v.837c0 1.39-1.181 2.379-2.743 2.379zM41.1 20c2.247 0 3.304-.856 4.227-3.454l4.047-11.341h-2.342l-2.714 8.763h-.047l-2.714-8.763h-2.409l3.904 10.799-.21.656c-.352 1.114-.923 1.542-1.942 1.542-.18 0-.533-.02-.676-.038v1.779c.133.038.705.057.876.057z" />
    </symbol>

    <symbol id="lock">
        <path fill-rule="evenodd" d="M10 1a4.5 4.5 0 00-4.5 4.5V9H5a2 2 0 00-2 2v6a2 2 0 002 2h10a2 2 0 002-2v-6a2 2 0 00-2-2h-.5V5.5A4.5 4.5 0 0010 1zm3 8V5.5a3 3 0 10-6 0V9h6z" clip-rule="evenodd" />
    </symbol>

    <symbol id="btc">
        <g stroke="none" stroke-width="1" fill="none" fill-rule="evenodd">
            <g transform="translate(-250, -46)" fill="currentColor" fill-rule="nonzero">
                <g>
                    <path d="M267.554411,55.5457908 C267.554411,57.3108448 266.03402,57.8316319 264.824183,57.8316319 L260.539711,57.8316319 L261.299171,53.4996301 L265.203912,53.4996301 C266.552101,53.4996301 267.554411,53.8206835 267.554411,55.5457908 Z M259.606577,63.1652611 L263.786549,63.1652611 C265.376116,63.1652611 266.724304,63.4877941 266.724304,65.6123687 C266.724304,67.939636 264.858034,68.5003699 263.511318,68.5003699 L258.63959,68.5003699 L259.606577,63.1652611 Z M275.156367,52.978843 C275.156367,48.8480544 273.151747,46.6820536 267.797261,46.6820536 L255.114578,46.6820536 L250,75.319426 L264.16775,75.319426 C269.559031,75.319426 274.32626,72.5912117 274.32626,65.6922622 C274.32626,63.0454209 272.875044,60.5184199 270.595193,59.957686 L270.595193,59.8777926 L270.630517,59.8777926 C273.600652,58.9545791 275.156367,56.5888445 275.156367,52.978843 Z M301.775724,54.0218967 L303.110666,46.6820536 L279.4585,46.6820536 L278.123558,54.0218967 L285.725515,54.0218967 L281.857569,75.319426 L290.30435,75.319426 L294.172296,54.0218967 L301.774252,54.0218967 L301.775724,54.0218967 Z M329,57.3507915 C328.989697,48.7666815 323.583698,46 317.480056,46 C308.14871,46 302.491029,53.6993638 302.335016,62.9655274 C302.20844,70.626424 305.957168,76 313.906474,76 C325.308673,76 327.603242,67.3774227 328.150759,64.4494748 L319.857047,64.4494748 C319.278621,66.9764758 317.749399,68.8628495 315.100121,68.8628495 C311.223344,68.8628495 310.746474,65.1714751 310.787685,62.8057405 C310.853917,58.7548454 312.637764,53.13863 317.319627,53.13863 C319.93211,53.13863 321.134588,54.662524 321.013898,57.3507915 L329,57.3507915 Z" />
                </g>
            </g>
        </g>
    </symbol>
</svg>